<?xml version="1.0" encoding="UTF-8" standalone="no"?>
<svg
   xmlns:dc="http://purl.org/dc/elements/1.1/"
   xmlns:cc="http://creativecommons.org/ns#"
   xmlns:rdf="http://www.w3.org/1999/02/22-rdf-syntax-ns#"
   xmlns:svg="http://www.w3.org/2000/svg"
   xmlns="http://www.w3.org/2000/svg"
   xmlns:xlink="http://www.w3.org/1999/xlink"
   xmlns:sodipodi="http://sodipodi.sourceforge.net/DTD/sodipodi-0.dtd"
   xmlns:inkscape="http://www.inkscape.org/namespaces/inkscape"
   sodipodi:docname="logoArlysere.svg"
   inkscape:version="1.0 (4035a4fb49, 2020-05-01)"
   id="svg8"
   version="1.1"
   viewBox="0 0 138.64655 124.60201"
   height="124.60201mm"
   width="138.64655mm">
  <defs
     id="defs2">
    <linearGradient
       inkscape:collect="always"
       id="linearGradient1455">
      <stop
         style="stop-color:#0f3845;stop-opacity:1;"
         offset="0"
         id="stop1451" />
      <stop
         style="stop-color:#0f3845;stop-opacity:0;"
         offset="1"
         id="stop1453" />
    </linearGradient>
    <linearGradient
       inkscape:collect="always"
       xlink:href="#linearGradient1455"
       id="linearGradient1457"
       x1="52.197739"
       y1="122.91726"
       x2="53.320271"
       y2="82.506104"
       gradientUnits="userSpaceOnUse" />
  </defs>
  <sodipodi:namedview
     fit-margin-bottom="0"
     fit-margin-right="0"
     fit-margin-left="0"
     fit-margin-top="0"
     inkscape:window-maximized="1"
     inkscape:window-y="-9"
     inkscape:window-x="-9"
     inkscape:window-height="1001"
     inkscape:window-width="1920"
     showguides="false"
     showgrid="false"
     inkscape:document-rotation="0"
     inkscape:current-layer="layer1"
     inkscape:document-units="mm"
     inkscape:cy="227.599"
     inkscape:cx="404.87273"
     inkscape:zoom="1.4142136"
     inkscape:pageshadow="2"
     inkscape:pageopacity="0.0"
     borderopacity="1.0"
     bordercolor="#666666"
     pagecolor="#ffffff"
     id="base" />
  <metadata
     id="metadata5">
    <rdf:RDF>
      <cc:Work
         rdf:about="">
        <dc:format>image/svg+xml</dc:format>
        <dc:type
           rdf:resource="http://purl.org/dc/dcmitype/StillImage" />
        <dc:title></dc:title>
      </cc:Work>
    </rdf:RDF>
  </metadata>
  <g
     style="display:inline"
     id="layer1"
     inkscape:groupmode="layer"
     inkscape:label="Calque 1">
    <g
       transform="translate(-10.476613,-13.386861)"
       style="display:inline"
       id="g882">
      <path
         d="m 103.64278,94.349591 c -0.28136,-0.211381 -0.25885,-0.331051 0.39659,-2.10855 0.66709,-1.809103 0.68468,-1.906259 0.44,-2.429853 -0.42131,-0.901551 -3.64013,-10.185425 -3.64013,-10.499032 0,-0.159942 0.0905,-0.381343 0.2012,-0.492003 0.27566,-0.275657 2.06374,-0.259766 2.34374,0.02083 0.12186,0.122117 0.7441,1.934756 1.38275,4.028086 0.63866,2.093332 1.21766,3.74763 1.28667,3.676221 0.069,-0.07141 0.512,-1.487938 0.98443,-3.147838 0.47243,-1.6599 0.97466,-3.376387 1.11606,-3.814417 l 0.2571,-0.796416 h 1.08162 c 0.82925,0 1.10524,0.06156 1.18287,0.26384 0.17317,0.451285 -3.99217,14.444006 -4.47845,15.044531 -0.35077,0.43318 -2.08648,0.606175 -2.55445,0.254601 z m 10.02296,-4.935209 c -1.53504,-0.382101 -1.92817,-0.743511 -1.92817,-1.772577 0,-1.004756 0.23604,-1.136421 1.2162,-0.67842 0.9601,0.448626 1.714,0.595792 2.39635,0.467782 0.72897,-0.136754 1.08212,-0.496365 1.08212,-1.101915 0,-0.587259 -0.34481,-0.849698 -1.89433,-1.441805 -2.51875,-0.962467 -3.46423,-2.972857 -2.24735,-4.778583 1.05284,-1.56231 3.51464,-2.067089 5.60876,-1.150049 0.71159,0.311615 0.71259,0.313308 0.71259,1.215699 0,0.497007 -0.0435,0.947152 -0.0967,1.000321 -0.0532,0.05317 -0.41155,-0.04147 -0.79641,-0.210305 -1.57577,-0.691288 -3.02547,-0.560464 -3.23951,0.292336 -0.16672,0.664255 0.10021,0.912487 1.76102,1.637687 2.42071,1.057013 3.2783,2.226416 2.89238,3.944028 -0.36029,1.603521 -1.74394,2.540239 -3.86218,2.614668 -0.6982,0.02453 -1.42036,0.007 -1.60479,-0.03887 z m 10.00386,-0.206267 c -1.17554,-0.419889 -2.27611,-1.499678 -2.66549,-2.61515 -0.40757,-1.167601 -0.40431,-3.723248 0.006,-4.900669 0.40705,-1.167337 1.4038,-2.263299 2.49946,-2.74825 1.30609,-0.578084 3.24072,-0.550614 4.43909,0.06303 1.50271,0.769484 2.23199,2.125632 2.23199,4.150549 0,1.657194 -0.0178,1.665095 -3.74464,1.665095 h -2.99935 l 0.1149,0.62875 c 0.27508,1.505333 1.04695,1.964974 3.09918,1.845537 0.78874,-0.0459 1.73439,-0.209833 2.10145,-0.364289 0.62835,-0.264412 0.67981,-0.263811 0.88025,0.01029 0.32026,0.437986 0.26112,1.352458 -0.11157,1.725149 -0.48013,0.480126 -1.40435,0.701231 -3.28039,0.784778 -1.35959,0.06055 -1.84582,0.01425 -2.57114,-0.244829 z m 3.82864,-6.791767 c 0,-2.068905 -2.83005,-2.639221 -3.69036,-0.743689 -0.59504,1.311066 -0.6019,1.305727 1.67836,1.305727 h 2.012 z m -3.89598,-6.40624 c -0.66982,-0.789405 -1.24591,-1.514905 -1.28021,-1.612226 -0.1068,-0.303079 0.36059,-0.468259 1.33255,-0.470929 0.75728,-0.0021 1.00051,0.06909 1.2805,0.374683 0.54385,0.593572 1.88853,2.846823 1.79206,3.002917 -0.0479,0.07746 -0.49655,0.140833 -0.99705,0.140833 h -0.91001 z m 19.04172,13.20846 c -1.25331,-0.449813 -1.97635,-1.074289 -2.51581,-2.172872 -0.4372,-0.890343 -0.47401,-1.115528 -0.47294,-2.893643 0.001,-1.61161 0.0598,-2.055405 0.35836,-2.703189 1.02687,-2.228003 3.2268,-3.338362 5.627,-2.840084 2.1814,0.452858 3.32764,1.880276 3.45476,4.302238 0.10109,1.925873 0.12847,1.911702 -3.69408,1.911702 -2.88462,0 -2.9807,0.01098 -2.9807,0.340719 0,0.642466 0.48307,1.496421 1.03783,1.83465 0.7362,0.448847 2.41986,0.454407 3.83914,0.01268 0.57778,-0.179824 1.10684,-0.292134 1.1757,-0.249577 0.22144,0.136853 0.3237,0.980676 0.18154,1.497843 -0.19729,0.717687 -1.31365,1.103111 -3.46771,1.197233 -1.34445,0.05875 -1.84834,0.01165 -2.54309,-0.237696 z m 3.75394,-6.917236 c -0.12733,-0.949262 -0.51427,-1.456273 -1.28843,-1.688216 -1.24532,-0.373109 -2.37453,0.376745 -2.61503,1.73652 l -0.11121,0.62875 h 2.05274 2.05274 z m -57.672599,6.867291 c -0.269118,-0.156747 -0.293416,-0.587107 -0.293416,-5.196718 v -5.025818 l 0.430082,-0.163517 c 1.081116,-0.41104 2.084918,0.002 2.084918,0.857825 v 0.499326 l 0.504021,-0.574047 c 0.708427,-0.806854 1.535656,-1.167414 2.359176,-1.028281 0.79234,0.133865 0.994037,0.446971 0.990569,1.537721 -0.0037,1.156731 -0.116042,1.266904 -1.15194,1.129488 l -0.871766,-0.115643 -0.747364,0.779991 -0.747363,0.779992 v 3.176823 c 0,2.969233 -0.02119,3.188165 -0.324311,3.35039 -0.413293,0.221187 -1.84823,0.216347 -2.232606,-0.0075 z m 7.850394,-0.08238 c -0.231303,-0.231301 -0.263477,-1.138319 -0.263477,-7.427633 0,-5.348567 0.05099,-7.215146 0.2012,-7.365357 0.207962,-0.207962 1.915497,-0.27918 2.38392,-0.09943 0.236241,0.09065 0.265214,0.902077 0.265214,7.427633 0,5.474337 -0.05085,7.376713 -0.2012,7.527062 -0.303383,0.303383 -2.066011,0.257371 -2.385657,-0.06228 z m 36.048335,0 c -0.22733,-0.227327 -0.26348,-0.926106 -0.26348,-5.093302 0,-3.952866 0.0429,-4.865472 0.23654,-5.026139 0.35565,-0.295164 1.29703,-0.397615 1.81738,-0.197784 0.38864,0.149248 0.46108,0.275068 0.46108,0.800817 v 0.623747 l 0.56826,-0.620392 c 0.70594,-0.770705 1.64461,-1.18435 2.37617,-1.047108 0.7881,0.147848 0.93555,0.421341 0.87837,1.629249 l -0.0503,1.062555 -0.98378,-0.05318 c -0.98069,-0.05302 -0.98611,-0.0507 -1.71859,0.73586 l -0.73479,0.789048 v 3.128856 c 0,2.209998 -0.0591,3.187942 -0.2012,3.330055 -0.30339,0.303383 -2.06601,0.257371 -2.38566,-0.06228 z"
         style="display:inline;fill:#616c6e;stroke-width:0.167667"
         id="path1796" />
      <path
         d="m 10.901584,97.752471 c -0.09895,-0.169431 -0.500131,-9.231526 -0.412563,-9.319093 0.08277,-0.08277 2.545626,-0.587553 40.050215,-8.20867 l 21.880501,-4.446225 0.276768,0.362993 c 0.363065,0.476177 1.39888,2.621078 1.30509,2.702504 -0.04007,0.03479 -10.183158,3.103552 -22.540192,6.819469 -12.357034,3.715919 -26.524576,7.97933 -31.483427,9.474245 -4.958852,1.494916 -9.043228,2.671565 -9.076392,2.614777 z M 86.162743,75.218034 c -0.041,-0.112099 -0.222063,-0.637268 -0.402365,-1.167044 l -0.327824,-0.963228 0.367925,-0.08796 c 0.20236,-0.04838 5.762601,-1.17937 12.356093,-2.513321 6.593488,-1.333951 12.131068,-2.460009 12.305738,-2.50235 0.17466,-0.04234 0.25011,-0.01808 0.16766,0.05392 -0.0824,0.072 -5.2805,1.665296 -11.551232,3.540667 -6.270733,1.875372 -11.725361,3.507273 -12.121393,3.626449 -0.561143,0.168861 -0.736511,0.171701 -0.794602,0.01288 z"
         style="display:inline;fill:#c03234;fill-opacity:1;stroke-width:0.167667"
         id="path892" />
      <g
         id="g1966">
        <path
           style="display:inline;fill:#30a8e0;fill-opacity:1;stroke-width:0.167667"
           d="m 65.663582,89.307781 c 0.657729,-1.129654 1.372719,-2.336854 1.588866,-2.682666 l 0.392996,-0.62875 h 3.113703 c 1.712535,0 3.088552,0.06135 3.057812,0.136328 -0.03074,0.07498 -0.734938,1.281848 -1.564888,2.68193 l -1.509,2.545605 -3.137679,6.7e-4 -3.137681,6.71e-4 1.195871,-2.053917 z"
           id="path1394" />
        <path
           style="display:inline;fill:#f18608;fill-opacity:1;stroke-width:0.167667"
           d="m 57.078237,91.276242 c 0,-0.05108 0.687661,-1.259948 1.528137,-2.686367 l 1.528136,-2.593489 h 3.156235 3.156233 l -1.573438,2.64075 -1.573439,2.64075 -3.110932,0.04562 c -1.711013,0.02509 -3.110932,0.0038 -3.110932,-0.04726 z"
           id="path1951" />
        <path
           id="path855"
           d="m 60.627182,97.76322 c 0.03074,-0.07563 0.726396,-1.282825 1.545903,-2.682667 l 1.490016,-2.545167 h 3.095463 3.095462 l -0.364493,0.62875 c -0.200473,0.345813 -0.905838,1.551402 -1.567479,2.679087 l -1.202984,2.050337 -3.073888,0.0036 c -1.69064,0.002 -3.04874,-0.0583 -3.018,-0.133921 z"
           style="display:inline;fill:#0d5392;fill-opacity:1;stroke-width:0.167667" />
        <path
           id="path890"
           d="m 53.340848,97.355803 c 0.175853,-0.299704 0.881219,-1.505761 1.567477,-2.680126 l 1.247745,-2.135209 3.059917,-0.0025 c 1.682954,-0.0013 3.059917,0.03853 3.059917,0.08873 0,0.0502 -0.693067,1.257396 -1.54015,2.682666 L 59.195607,97.90072 H 56.10836 53.021114 Z"
           style="display:inline;fill:#1786a6;fill-opacity:1;stroke-width:0.167667" />
      </g>
      <path
         d="m 28.969692,115.84099 c 0.0462,-0.13832 1.756905,-5.30665 3.801573,-11.48516 2.044667,-6.17852 3.777309,-11.297191 3.850315,-11.374827 0.155323,-0.165175 4.673276,-1.150665 4.952414,-1.080256 0.104114,0.02626 -1.085223,2.424421 -2.642969,5.329246 -1.557745,2.904827 -3.575327,6.715047 -4.483514,8.467167 -1.874045,3.6155 -5.604869,10.52425 -5.477819,10.14383 z M 65.512796,13.388847 c -0.149556,0.06349 -0.997823,1.636915 -2.170409,4.031795 -1.960335,4.003776 -2.109176,4.25435 -2.34301,3.940328 -0.137337,-0.184433 -0.900258,-1.578236 -1.695505,-3.097485 -0.795245,-1.51925 -1.467419,-2.688698 -1.493449,-2.598808 -0.02604,0.08989 -4.237675,14.600613 -9.359635,32.24661 -5.12196,17.645996 -9.313124,32.139397 -9.313124,32.207337 0,0.16537 6.012119,-0.736047 6.197036,-0.929143 0.07971,-0.08323 3.890486,-6.526715 8.468217,-14.319022 4.577731,-7.79231 8.381622,-14.226482 8.453231,-14.298353 0.07161,-0.07187 4.991982,8.874959 10.931631,19.883024 5.308979,9.839234 9.422078,17.438532 14.44563,26.77201 1.776442,3.30103 3.247785,5.98584 3.270086,5.96604 0.0223,-0.0198 -1.410919,-5.174126 -3.185337,-11.454078 L 74.853828,46.259191 C 69.781313,28.32305 65.587186,13.534923 65.533468,13.396598 c -0.0037,-0.0094 -0.01069,-0.01198 -0.02066,-0.0078 z"
         style="display:inline;fill:#272c30;stroke-width:0.167667"
         id="path1045" />
      <path
         sodipodi:nodetypes="ccssssssssssscsccccccccccsccsssccsssscssssssccccsscccscssssccccssccccsssscssccccsssssccsssscccssssccsssssssssssscsssscssssssssssccsccsssscsssscsssccsscsssscsssccccsssscsssssssssssssssssssssssscsssssscsssssssscsscssccssccssssssssssssssssccsccss"
         d="m 254.05469,481.5625 c -1.13342,0.008 -2.25878,0.1295 -2.80469,0.35352 -1.11817,-0.0359 -1.56591,0.96291 -2.26172,4.38671 -0.62238,3.06237 -0.72296,3.17393 -2.99609,3.36329 -2.14894,0.17892 -2.40928,0.41364 -3.02735,2.70898 -0.82383,3.05949 -0.46555,3.75 1.95118,3.75 1.02503,0 1.86328,0.2464 1.86328,0.54688 0,0.30057 -0.71265,4.04594 -1.58399,8.32421 -0.87134,4.27828 -1.58398,8.58318 -1.58398,9.56446 0,2.71192 1.22368,4.82858 3.41211,5.9082 2.33303,1.15102 5.75688,1.27565 8.52539,0.31055 1.56578,-0.54584 2.133,-1.23118 2.67187,-3.23242 0.37614,-1.39684 0.52446,-2.69832 0.33008,-2.89258 -0.19439,-0.19435 -1.71081,-0.37992 -3.36914,-0.41016 -2.72872,-0.0524 -3.03263,-0.20881 -3.19141,-1.64258 -0.0965,-0.87133 0.48653,-4.86489 1.29493,-8.87304 l 1.4707,-7.28711 3.61133,-0.18946 c 3.90634,-0.20541 4.57556,-0.77664 4.98242,-4.24609 l 0.22266,-1.90039 -3.69336,-0.19141 -3.69336,-0.1914 0.45703,-2.66016 c 0.60887,-3.54726 0.65982,-4.38341 0.0195,-4.40234 0.014,-0.001 0.0579,-0.009 0.0703,-0.01 0.42049,-0.0242 0.61699,-0.282 0.4375,-0.57227 -0.22081,-0.35728 -1.66735,-0.52642 -3.11523,-0.51562 z m 60.29297,7.0293 c -2.36475,-0.0276 -4.83753,0.35024 -6.89063,1.13867 -6.04966,2.32312 -10.90758,10.00192 -11.70117,18.5 -0.58885,6.30599 1.64775,10.53509 6.45508,12.21094 v 0.002 c 4.42768,1.54352 14.58485,0.43468 16.85937,-1.83984 1.02093,-1.02085 1.75631,-5.00196 0.92383,-5.00196 -0.15265,0 -2.22144,0.45197 -4.5957,1.00586 -7.9787,1.86131 -11.60352,0.35497 -11.60352,-4.82226 v -2.98633 l 6.2461,-0.30078 c 9.23066,-0.44448 14.03481,-3.14747 15.03125,-8.45899 0.57781,-3.0799 -1.31959,-6.53173 -4.48438,-8.15625 -1.61953,-0.83134 -3.87548,-1.26338 -6.24023,-1.29101 z m 124.80273,0.14453 c -2.33017,-0.0546 -5.02091,1.37188 -7.23242,3.89062 l -2.10156,2.39258 0.20898,-2.77344 c 0.20568,-2.71373 0.16709,-2.77952 -1.83398,-2.97265 -3.92909,-0.37943 -4.03774,-0.14298 -7.23243,15.83203 -1.62591,8.13029 -2.81574,15.01127 -2.64453,15.28906 0.17122,0.2778 1.90569,0.41997 3.85547,0.31641 l 3.54492,-0.18946 1.70899,-8.27734 c 2.06199,-9.99428 3.3177,-12.67509 7.08789,-15.12891 1.22706,-0.79865 2.36394,-1.01639 3.85742,-0.73632 2.0239,0.37969 2.14931,0.28982 2.85352,-2.06055 1.1862,-3.95917 0.97579,-5.01136 -1.09766,-5.4668 -0.31569,-0.0693 -0.64173,-0.10743 -0.97461,-0.11523 z m -150.19727,0.004 c -2.29872,-0.0161 -5.13246,1.50462 -7.33203,4.00977 l -1.91992,2.1875 0.17383,-2.73242 c 0.16971,-2.65898 0.11905,-2.73964 -1.87109,-2.93164 -3.9291,-0.37943 -4.03775,-0.14298 -7.23243,15.83203 -1.62589,8.13029 -2.81574,15.01127 -2.64453,15.28906 0.1712,0.2778 1.92512,0.41997 3.89844,0.31641 l 3.58789,-0.18946 1.65625,-8.05664 c 2.04567,-9.94938 2.60007,-11.30782 5.7832,-14.18359 2.25976,-2.0414 2.8047,-2.2517 4.96485,-1.90625 2.37198,0.37928 2.44208,0.33523 3.08789,-1.99023 1.11752,-4.02399 0.88831,-5.08169 -1.20313,-5.54102 -0.30319,-0.0666 -0.62083,-0.10122 -0.94922,-0.10352 z m -163.42578,0.0469 c -2.54927,-0.0998 -5.2275,0.71762 -7.79296,2.46289 -8.72454,5.93529 -11.56913,24.65602 -4.41016,29.02148 3.87696,2.36414 10.0579,0.95828 14.10937,-3.20703 L 129.44336,515 l -0.54492,2.41016 c -0.29885,1.32499 -0.40001,2.63715 -0.22656,2.91796 0.17345,0.28048 1.58806,0.51172 3.14453,0.51172 2.36107,0 2.91407,-0.23621 3.33984,-1.42578 1.15361,-3.22322 5.94871,-28.31284 5.58984,-29.24804 -0.90884,-2.36841 -6.76562,-0.6404 -6.76562,1.99609 0,0.83414 -0.25561,0.77461 -1.43359,-0.33203 -2.05007,-1.92594 -4.47027,-2.94319 -7.01954,-3.04297 z m 394.26954,0.01 c -9.1467,-0.25287 -16.55868,7.83715 -17.46094,19.7246 -0.46798,6.16589 1.13618,9.90796 5.02539,11.72266 3.40433,1.58846 9.1994,1.41676 12.8457,-0.38086 2.07436,-1.02266 2.66299,-1.74152 3.32422,-4.06445 0.4422,-1.55248 0.58356,-3.04302 0.31445,-3.3125 -0.26929,-0.26929 -1.88463,0.21679 -3.58984,1.08008 -4.00895,2.02941 -6.30366,2.01079 -8.38281,-0.0684 -1.50811,-1.50796 -1.61184,-1.95978 -1.3125,-5.68946 0.37916,-4.72373 2.49961,-9.43446 5.09765,-11.32226 2.33122,-1.69383 6.06803,-1.59023 8.63868,0.24023 l 1.96679,1.40039 0.93945,-2.24804 c 0.51674,-1.23674 0.93946,-2.6411 0.93946,-3.1211 0,-1.48732 -2.13063,-2.89599 -5.45703,-3.60937 -0.97806,-0.20976 -1.94246,-0.32541 -2.88867,-0.35156 z m -119.24805,0.0625 c -2.36475,-0.0276 -4.83753,0.35024 -6.89063,1.13867 -6.04966,2.32312 -10.90563,10.00192 -11.69922,18.5 -0.58885,6.30599 1.6458,10.53704 6.45313,12.21289 4.42768,1.54352 14.58485,0.43467 16.85937,-1.83985 1.02093,-1.02085 1.75631,-5.00195 0.92383,-5.00195 -0.15265,0 -2.21949,0.45197 -4.59375,1.00586 -7.97869,1.8613 -11.60547,0.35497 -11.60547,-4.82227 v -2.98632 l 6.2461,-0.30079 c 9.23066,-0.44447 14.03481,-3.14746 15.03125,-8.45898 0.57781,-3.0799 -1.31959,-6.53173 -4.48438,-8.15625 -1.61953,-0.83134 -3.87548,-1.26338 -6.24023,-1.29101 z m 150.74219,0.0195 c -3.7321,0.005 -5.00981,0.30977 -7.88868,1.88281 -2.02824,1.10827 -4.2969,3.0447 -5.54101,4.72851 -4.11704,5.57224 -5.92351,15.81391 -3.63867,20.62891 1.22978,2.59155 2.08648,3.33914 5.16211,4.49024 2.7685,1.03615 11.93312,0.79091 15.20703,-0.40626 1.58305,-0.57887 2.22175,-1.31742 2.79492,-3.23046 0.40857,-1.36377 0.5743,-2.64835 0.36719,-2.85547 -0.2069,-0.20693 -2.19613,0.081 -4.41993,0.63867 -4.7701,1.19637 -7.43841,1.278 -9.59179,0.29687 -1.86278,-0.84876 -3.10283,-3.50432 -2.81446,-6.02734 l 0.20704,-1.81055 6.01953,-0.35546 c 10.235,-0.60386 15.33593,-3.91434 15.33593,-9.95508 0,-4.82525 -4.47869,-8.03673 -11.19921,-8.02539 z m -184.75977,0.006 c -7.47053,0.037 -12.65625,4.32495 -12.65625,10.46679 0,3.80028 1.43657,5.6082 6.6582,8.38086 3.02657,1.60706 3.83925,2.36261 3.9961,3.7207 0.47217,4.08874 -5.70925,5.78858 -10.91211,3 -2.48073,-1.32956 -3.50562,-1.00963 -3.53321,1.10547 -0.005,0.40717 -0.1497,1.12178 -0.32031,1.58594 -0.49171,1.33784 0.55781,2.44222 3.22461,3.39258 8.20684,2.92467 17.35863,-0.85517 19.27149,-7.95899 1.19406,-4.43444 -0.40482,-7.44125 -5.2461,-9.86718 -5.75226,-2.88242 -6.81091,-4.67542 -4.26562,-7.22071 1.54135,-1.54117 4.80796,-1.65673 8.08593,-0.28711 2.17625,0.90917 2.4037,0.89769 3.17579,-0.1582 0.45729,-0.62536 0.74838,-1.84773 0.64648,-2.7168 -0.26437,-2.2546 -3.1275,-3.46981 -8.125,-3.44335 z m -145.41602,0.0156 c -8.01571,0.0409 -13.1838,3.43873 -16.72851,10.99805 -1.39945,2.98439 -1.64808,4.39145 -1.64844,9.32812 -4.8e-4,6.79427 0.83585,8.46716 5.42383,10.86524 2.39946,1.25401 3.51459,1.43405 7.56641,1.21484 5.66913,-0.30675 8.86314,-1.75207 12.31445,-5.57226 3.61205,-3.9981 4.98663,-7.62808 5.26953,-13.90626 0.2963,-6.57592 -0.77621,-9.03305 -4.97266,-11.38671 -2.24308,-1.25802 -3.6565,-1.55992 -7.22461,-1.54102 z m 231.4375,0.26367 c -4.79765,0.0174 -4.69989,-0.51487 -2.75,14.99219 0.9566,7.60743 2.00668,14.48567 2.33399,15.28516 0.55361,1.35223 0.91064,1.43902 5.18359,1.26562 l 4.58985,-0.18555 3.0664,-4.4375 c 5.82758,-8.43155 13.28599,-25.3867 11.63086,-26.43945 -0.9719,-0.61655 -5.59721,-0.60933 -6.57422,0.0117 -0.41813,0.26581 -1.66414,3.04285 -2.76758,6.16992 -1.959,5.55198 -5.94994,14.02945 -7.69921,16.35352 -0.76653,1.01843 -1.01734,-0.19789 -2.02735,-9.82227 -0.63405,-6.04161 -1.41462,-11.48381 -1.73437,-12.09375 -0.41522,-0.79162 -1.34541,-1.10717 -3.25196,-1.09961 z m 39.58008,0.0156 c -1.54969,-0.05 -3.3645,0.2273 -4.06054,0.76562 -1.08042,0.83558 -7.13027,29.24978 -6.45899,30.33594 0.53428,0.86426 6.46133,0.66738 7.04492,-0.23437 0.28199,-0.43567 1.83941,-7.35089 3.46094,-15.36719 2.14197,-10.58986 2.74741,-14.70275 2.2168,-15.04102 -0.44062,-0.28087 -1.27331,-0.42896 -2.20313,-0.45898 z m -318.99804,0.006 c -1.42946,-0.0454 -2.93485,0.12716 -3.59766,0.54687 -0.74476,0.47161 -0.60771,2.71678 0.88477,14.40625 0.97245,7.61654 2.00459,14.49118 2.29296,15.27539 0.47487,1.29128 0.94041,1.42578 4.92383,1.42578 4.33648,0 4.42228,-0.034 6.2168,-2.37695 6.35474,-8.29693 15.30861,-27.53676 13.38281,-28.75781 -1.04659,-0.66361 -5.64727,-0.69766 -6.66797,-0.0488 -0.41816,0.26581 -1.66222,3.04285 -2.76562,6.16992 -1.9527,5.53402 -5.94976,14.02897 -7.68555,16.33399 -0.74726,0.99235 -1.01711,-0.34625 -2.04297,-10.14063 -0.64993,-6.20526 -1.46057,-11.63855 -1.80273,-12.07422 -0.35505,-0.45201 -1.70922,-0.71436 -3.13867,-0.75976 z m 140.41992,4.76953 c 1.97257,0 4.42721,2.25065 3.91406,3.58789 -0.20107,0.52437 -0.36719,1.22852 -0.36719,1.56641 0,0.33781 -0.98857,1.02818 -2.19726,1.5332 -2.13854,0.89355 -9.8418,1.30788 -9.8418,0.5293 0,-0.21393 0.61693,-1.48824 1.37109,-2.83008 1.44987,-2.57972 4.38325,-4.38672 7.1211,-4.38672 z m 86.20117,0.26953 c 1.97257,0 4.42721,2.2487 3.91406,3.58594 -0.20107,0.52437 -0.36523,1.22851 -0.36523,1.5664 0,0.33782 -0.98858,1.02819 -2.19727,1.53321 -2.13853,0.89355 -9.84375,1.30788 -9.84375,0.52929 0,-0.21392 0.61693,-1.48628 1.3711,-2.82812 1.44986,-2.57972 4.38324,-4.38672 7.12109,-4.38672 z m 150.74023,0.041 c 2.32063,-0.12012 4.26172,0.98269 4.26172,3.39063 0,0.79245 -0.59436,1.97994 -1.32226,2.63867 -0.97981,0.88675 -2.54229,1.25785 -6.01953,1.4336 -5.2616,0.2657 -5.56924,-0.0464 -3.45508,-3.51368 1.51606,-2.48642 4.21453,-3.82909 6.53515,-3.94922 z M 219.875,494.7793 c 1.25819,0.0256 2.53928,0.48652 3.76562,1.45117 1.68557,1.32589 1.73445,1.53557 1.45704,6.17773 -0.32004,5.35548 -1.90519,9.21492 -4.6836,11.40039 v 0.002 c -2.31098,1.81629 -6.73199,1.8129 -8.55273,-0.008 -1.16114,-1.16114 -1.30301,-1.91769 -1.09571,-5.86132 0.41012,-7.80207 4.61583,-13.25361 9.10938,-13.16211 z m -94.0957,0.8164 c 1.00513,0.0161 2.06354,0.29337 3.15429,0.85742 2.45561,1.26985 2.85519,3.23491 1.56446,7.70704 -1.28916,4.46664 -3.00597,7.38511 -5.27539,8.9707 -2.57823,1.80128 -4.73604,2.11986 -6.41016,0.94726 -1.35634,-0.95002 -1.44029,-1.36558 -1.17969,-5.86718 0.45347,-7.83329 3.79092,-12.68491 8.14649,-12.61524 z m 363.0803,-11.821 c -1.11534,-1.34389 -0.25701,-5.14542 1.42794,-6.32572 1.40889,-0.98684 4.62546,-1.27877 6.4357,-0.58413 1.44824,0.55574 1.26599,4.17891 -0.31105,6.18376 -1.05551,1.34185 -1.84906,1.66972 -4.04145,1.66972 -1.64292,0 -3.03957,-0.37531 -3.51118,-0.94363 z m -364.82835,-9.03251 c -1.86103,0.005 -3.99219,0.42794 -3.99219,0.93554 0,0.44671 2.77618,4.11991 4.15625,5.5 1.45113,1.79632 1.87336,2.73934 3.44922,3.70704 1.45207,0.56054 3.38722,0.5109 4.37305,-0.11329 0.73862,-0.46764 0.68359,-0.82034 -0.32422,-2.10156 -1.44105,-2.18265 -1.705,-3.04896 -2.54297,-4.56836 -1.13078,-2.02318 -2.08551,-2.91582 -3.4375,-3.21289 -0.47168,-0.10359 -1.0613,-0.14817 -1.68164,-0.14648 z"
         transform="scale(0.26458333)"
         style="display:inline;fill:#272c30;stroke-width:0.633702"
         id="path1209" />
      <path
         d="m 119.96224,108.1324 c -2.22054,0 -4.25719,0.62128 -5.53299,1.68724 -0.51578,0.50738 -1.08181,1.03082 -1.4671,1.52342 -1.30631,1.69322 -2.08532,3.94037 -2.03398,5.86682 0.0163,0.7864 -0.0269,1.6358 0.23151,2.24689 0.19154,0.99837 1.75223,2.8547 3.59306,3.37396 v 5.3e-4 c 1.04979,0.29612 4.67376,0.18374 5.82135,-0.18035 1.41385,-0.44856 1.56713,-0.65302 1.99006,-2.66237 0.1883,-0.98513 0.33089,-1.59814 0.66451,-3.2949 0.16163,-0.83232 0.24944,-1.62887 0.19534,-1.76992 -0.0828,-0.21585 -0.5378,-0.25632 -2.87838,-0.25632 h -2.78019 l -0.2527,0.6041 c -0.13883,0.33226 -0.22932,0.80391 -0.20102,1.048 0.0508,0.43835 0.0698,0.44447 1.5322,0.49248 l 1.48053,0.0486 -0.11575,0.68523 c -0.12416,0.69919 -0.20858,1.08152 -0.40411,1.83864 -0.19018,0.92754 -0.20714,0.94826 -0.94361,1.15445 -1.13498,0.31778 -2.78506,0.13249 -3.59513,-0.40359 -0.64484,-0.42673 -1.15288,-1.34568 -1.33997,-2.04225 -0.0531,-0.75237 -0.0712,-0.78119 0.0331,-1.6335 0.0592,-1.10241 0.17947,-1.59414 0.60979,-2.49235 0.64518,-1.34676 1.65142,-2.46974 2.79724,-2.99672 0.72652,-0.33414 2.0031,-0.4221 2.59932,-0.41135 0.9401,0.017 2.08634,0.21934 2.91197,0.56534 1.2582,0.52728 1.3729,0.55229 1.56528,-0.32401 0.0622,-0.2855 0.0747,-0.44048 0.10439,-0.72812 0.19668,-1.10006 -1.67608,-1.93993 -4.58474,-1.93993 z m -71.507833,0.16331 c -1.071025,0 -1.282501,0.0482 -1.430403,0.32453 -0.415264,3.18961 -1.290902,6.95562 -1.981266,9.46816 -0.426884,1.56687 -1.853473,2.61483 -3.558956,2.61483 -1.811271,0 -2.592953,-0.76182 -2.486152,-2.42414 0.323919,-3.20001 0.959768,-5.8353 1.736897,-9.00435 0.0411,-0.18709 0.0863,-0.25884 0.04956,-0.51756 -0.04935,-0.34749 -0.152051,-0.38126 -1.306896,-0.42736 -1.035466,-0.0413 -1.290966,5.3e-4 -1.467094,0.24133 -0.367223,1.95425 -0.718362,3.29203 -1.050584,4.97282 -0.359814,1.69093 -0.752826,3.42235 -0.923456,4.81314 -0.137745,1.18682 0.21608,2.58188 0.843875,3.32797 0.57209,0.67989 1.681792,1.18738 2.95796,1.35289 2.6871,0.34849 5.49018,-0.57001 6.739641,-2.20814 0.543645,-0.71276 1.272865,-2.2985 1.354955,-2.9471 0.592074,-2.56282 0.967147,-5.90793 1.681551,-8.7235 0.0394,-0.26512 0.165106,-0.42091 0.202055,-0.59015 -0.08387,-0.21856 -0.355227,-0.27337 -1.361673,-0.27337 z m 95.145093,-0.23047 c -2.16931,-0.0336 -4.48296,0.71698 -5.59345,1.87689 -0.31336,0.31649 -0.61137,0.64701 -0.91003,0.9772 -0.68369,0.83537 -1.68604,3.1154 -1.95802,4.45399 -0.24929,1.22701 -0.18707,3.0024 -0.18707,3.0024 0.0309,0.51555 0.0318,1.11187 0.18552,1.63607 0.49312,1.66051 1.95149,2.76477 3.99872,3.02824 v 5.3e-4 c 1.11951,0.14408 2.49611,0.0694 3.53261,-0.1912 1.71539,-0.43123 3.63985,-1.87588 4.5346,-3.40393 0.63729,-1.20584 0.96247,-1.90027 1.22835,-2.90266 0.3888,-2.20487 0.63397,-4.69187 -0.21549,-6.38256 -0.56825,-1.09888 -1.83831,-1.79631 -3.699,-2.0314 -0.30008,-0.0379 -0.60684,-0.0588 -0.91674,-0.0636 z m 1.17667,2.78381 c 0.7187,0.409 0.99788,1.20831 0.99788,2.85564 0,1.45211 -0.287,2.85665 -0.83768,4.10155 -0.93944,1.83006 0.74611,-1.04028 -0.79633,1.30225 -0.20689,0.31941 -0.77256,0.80825 -1.25729,1.08624 -0.74182,0.42541 -1.06199,0.50594 -2.02158,0.50694 -0.68157,0.001 -1.33266,-0.0981 -1.61954,-0.24649 -0.59814,-0.3093 -1.18029,-1.03296 -1.18029,-1.4671 -0.12663,-0.39658 -0.15815,-0.721 -0.16485,-1.34409 0.002,-0.48414 0.10798,-1.37102 0.23616,-1.97043 0.56013,-2.61916 1.54243,-4.1495 3.16157,-4.92579 0.70906,-0.44172 2.35186,-0.55775 3.48195,0.10128 z m -39.57743,-2.71663 c -2.22053,0 -4.25719,0.62127 -5.532991,1.68723 -0.515776,0.50739 -1.081802,1.03082 -1.467093,1.52342 -1.306317,1.69322 -2.085324,3.94038 -2.033985,5.86683 0.01632,0.78639 -0.02692,1.6358 0.231511,2.24689 0.19154,0.99837 1.752232,2.85469 3.593063,3.37395 v 5.3e-4 c 1.049785,0.29612 4.673755,0.18374 5.821345,-0.18035 1.41386,-0.44856 1.56713,-0.65302 1.99006,-2.66237 0.18831,-0.98513 0.3309,-1.59814 0.66451,-3.2949 0.16163,-0.83232 0.24944,-1.62887 0.19534,-1.76992 -0.0828,-0.21585 -0.5378,-0.25631 -2.87838,-0.25631 h -2.78019 l -0.2527,0.6041 c -0.13883,0.33226 -0.22932,0.8039 -0.20102,1.04799 0.0508,0.43835 0.0698,0.44448 1.53221,0.49248 l 1.48053,0.0486 -0.11576,0.68524 c -0.12415,0.69919 -0.20858,1.08151 -0.4041,1.83864 -0.19018,0.92753 -0.20714,0.94826 -0.94362,1.15445 -1.13498,0.31778 -2.78505,0.13248 -3.59512,-0.4036 -0.644844,-0.42673 -1.152884,-1.34567 -1.339973,-2.04225 -0.05311,-0.75236 -0.07122,-0.78118 0.03307,-1.6335 0.05919,-1.10241 0.179469,-1.59414 0.609782,-2.49235 0.645181,-1.34675 1.651431,-2.46974 2.797241,-2.99672 0.72652,-0.33413 2.00311,-0.4221 2.59933,-0.41134 0.94009,0.017 2.08633,0.21934 2.91197,0.56534 1.2582,0.52728 1.37289,0.55229 1.56528,-0.32401 0.0622,-0.28551 0.0747,-0.44048 0.10438,-0.72812 0.19669,-1.10007 -1.67608,-1.93994 -4.58473,-1.93994 z m -50.167992,0.16329 c -1.414122,0 -1.867858,0.24971 -1.938383,0.92088 -0.308769,1.29753 -0.645583,2.69806 -0.867648,3.81626 -0.276235,1.38319 -0.835803,4.16626 -0.929653,4.69433 -0.267401,1.13503 -0.923457,4.57623 -0.923457,4.84363 0,0.27151 0.136732,0.31154 1.047999,0.30954 0.576355,-0.001 1.141098,-0.0619 1.25522,-0.13436 0.175919,-0.11173 0.761677,-2.84372 1.104326,-4.68343 0.132223,-0.62399 0.470096,-2.62071 1.119309,-6.0017 0,-0.67544 0.257532,-0.46755 0.476975,0.38499 0.504233,1.60313 1.391153,4.25471 1.702739,5.20278 0.186037,0.59637 1.359498,4.37334 1.700155,4.80642 v 5.3e-4 c 0.305943,0.38896 0.447794,0.42789 1.563211,0.42789 1.792396,0 1.862262,-0.0849 2.438612,-2.9404 0.325736,-1.96535 1.755685,-9.04335 2.215885,-10.98692 0.09396,-0.64027 -0.0205,-0.69193 -1.383379,-0.62684 -1.005782,0.048 -1.066689,0.0754 -1.222664,0.54519 -0.619045,3.33976 -1.254138,6.6838 -1.879989,9.56584 l -0.115239,0.67024 -0.299722,-0.9219 c -0.311984,-0.63658 -1.082533,-3.50175 -1.506369,-4.77594 l -1.288293,-3.8592 c 0,0 -0.101703,-0.34827 -0.157612,-0.4563 -0.338876,-0.65526 -0.723805,-0.8015 -2.112018,-0.8015 z m 6.864413,9.28839 c -0.05571,-0.0557 -0.200328,-0.0617 -0.321362,-0.0132 -0.133752,0.0535 -0.09402,0.0932 0.1013,0.1013 0.176747,0.007 0.275776,-0.0324 0.220062,-0.0881 z m 10.86784,-9.29769 c -1.980494,0.009 -3.985273,0.0851 -4.165121,0.21911 -0.154707,0.11527 -0.334285,0.43744 -0.381373,0.71882 -0.185479,1.10834 -1.601367,8.05199 -1.705838,8.51266 -0.02437,0.1074 -0.219019,1.19814 -0.470773,2.41794 -0.3732,1.80822 -0.418706,2.26459 -0.24598,2.47272 0.178673,0.21526 0.826854,0.25528 4.1398,0.25528 h 3.928441 l 0.242879,-0.58136 c 0.133617,-0.3198 0.24288,-0.81025 0.24288,-1.08986 v -0.5085 H 71.58116 c -1.521576,0 -2.76624,-0.0294 -2.76624,-0.0656 0,-0.0362 0.119454,-0.64405 0.265618,-1.35081 0.127923,-1.07056 0.413843,-1.923 0.576707,-2.94246 h 2.339393 c 2.648889,0 2.679565,-0.0156 2.739884,-1.3932 l 0.03049,-0.7028 -2.305285,-0.0465 c -1.267979,-0.0256 -2.305285,-0.1117 -2.305285,-0.1912 0,-0.0795 0.150428,-0.87769 0.334864,-1.77405 0.184433,-0.89636 0.335381,-1.65909 0.335381,-1.69499 0,-0.036 1.247378,-0.0656 2.771923,-0.0656 2.720753,0 2.77478,-0.007 2.914033,-0.37724 0.264634,-0.62911 0.629267,-0.97875 0.268719,-1.6309 -0.08207,-0.13281 -2.037868,-0.19054 -4.018359,-0.18139 z m 17.062005,0.032 c -1.3144,-0.0131 -1.46118,0.13094 -1.905825,1.00252 l -0.320395,0.62839 c -1.936017,4.26826 1.914721,-3.3908 -1.598393,2.99724 -2.018038,3.76718 -3.903369,7.00837 -5.111824,9.65005 -0.0013,0.267 0.141166,0.29516 1.280544,0.25166 0.917707,-0.035 1.39977,-0.0907 1.644859,-0.48783 l 1.059884,-2.03346 0.456303,-0.79582 2.784326,-0.001 2.784843,-5.3e-4 0.209807,1.55081 c 0.115527,0.853 0.243914,1.6077 0.285252,1.6769 0.130903,0.21906 2.513918,0.14511 2.698544,-0.0837 0.115229,-0.14282 0.0699,-0.87715 -0.142626,-2.30529 -0.17154,-1.15271 -0.315045,-2.20882 -0.318844,-2.34714 -0.0058,-0.21272 -0.03031,-0.21527 -0.157097,-0.015 -1.303168,-0.76373 -0.405894,0.37092 -0.0041,0.002 0.08001,-0.12946 0.111265,-0.38686 0.06976,-0.57206 -0.04151,-0.1852 -0.272081,-1.9169 -0.582911,-3.83697 -0.624321,-3.85661 -0.536099,-3.67878 -0.634077,-4.47 l -0.127124,-0.74879 -1.731677,-0.0481 c -0.239699,-0.007 -0.451466,-0.0116 -0.639238,-0.0134 z m -0.119372,2.9776 c 0.123695,0.006 0.873016,4.81186 0.898136,5.76037 0.007,0.26431 -0.201165,0.29352 -2.098061,0.29352 h -2.106332 l 1.578713,-3.0303 c 0.868325,-1.66686 1.645814,-3.02759 1.727544,-3.02359 z m 40.275056,-2.98173 c -0.1467,0.003 -0.31542,0.01 -0.50901,0.0165 l -1.37976,0.0491 -0.19275,0.86971 -0.97617,4.92633 -1.25367,6.18308 c -0.31574,1.63876 -0.34967,2.07161 -0.17932,2.27687 0.17805,0.21435 0.76667,0.24645 3.83181,0.20825 l 3.62148,-0.045 0.19999,-0.4191 c 0.10997,-0.23054 0.22372,-0.72099 0.25322,-1.08986 l 0.0537,-0.67076 -2.45101,-0.046 -2.45153,-0.0465 0.21756,-1.04179 0.185,-1.18444 1.7911,-8.60617 c 0.21093,-1.27668 0.26627,-1.40478 -0.76068,-1.38028 z m -8.35078,9.87396 c 0,-0.0922 -0.0799,-0.16767 -0.17757,-0.16767 -0.0977,0 -0.13093,0.0755 -0.0739,0.16767 0.057,0.0922 0.13689,0.16766 0.17756,0.16766 0.0407,0 0.0739,-0.0754 0.0739,-0.16766 z m -60.056111,-0.6175 c 0.121034,-0.0484 0.265648,-0.0425 0.321362,0.0132 0.05571,0.0557 -0.04331,0.0953 -0.220062,0.0881 -0.195324,-0.008 -0.235052,-0.0478 -0.1013,-0.1013 z"
         style="display:inline;fill:url(#linearGradient1457);fill-opacity:1;stroke-width:0.167667"
         id="path1847-2" />
    </g>
  </g>
</svg>
